<svg xmlns="http://www.w3.org/2000/svg" xmlns:xlink="http://www.w3.org/1999/xlink" width="500" zoomAndPan="magnify" viewBox="0 0 375 374.999991" height="500" preserveAspectRatio="xMidYMid meet" version="1.0"><defs><g/></defs><rect x="-37.5" width="450" fill="#ffffff" y="-37.499999" height="449.999989" fill-opacity="1"/><rect x="-37.5" width="450" fill="#ffffff" y="-37.499999" height="449.999989" fill-opacity="1"/><g fill="#db4a2b" fill-opacity="1"><g transform="translate(15.06881, 176.563215)"><g><path d="M 33.5 0 L 32.515625 -6.046875 C 30.953125 -3.878906 28.894531 -2.175781 26.34375 -0.9375 C 23.800781 0.289062 21.117188 0.90625 18.296875 0.90625 C 13.660156 0.90625 10.179688 -0.378906 7.859375 -2.953125 C 5.546875 -5.523438 4.390625 -9.226562 4.390625 -14.0625 L 4.390625 -39.9375 L 19.4375 -39.9375 L 19.4375 -15.875 C 19.4375 -14.164062 19.875 -12.789062 20.75 -11.75 C 21.632812 -10.71875 22.882812 -10.203125 24.5 -10.203125 C 26.363281 -10.203125 27.875 -10.804688 29.03125 -12.015625 C 30.195312 -13.234375 30.78125 -14.722656 30.78125 -16.484375 L 30.78125 -39.9375 L 45.828125 -39.9375 L 45.828125 0 Z M 33.5 0 "/></g></g></g><g fill="#db4a2b" fill-opacity="1"><g transform="translate(61.197492, 176.563215)"><g><path d="M 32.0625 -40.84375 C 36.695312 -40.84375 40.175781 -39.554688 42.5 -36.984375 C 44.820312 -34.410156 45.984375 -30.703125 45.984375 -25.859375 L 45.984375 0 L 30.9375 0 L 30.9375 -24.046875 C 30.9375 -25.765625 30.492188 -27.140625 29.609375 -28.171875 C 28.722656 -29.203125 27.472656 -29.71875 25.859375 -29.71875 C 23.992188 -29.71875 22.484375 -29.113281 21.328125 -27.90625 C 20.171875 -26.695312 19.59375 -25.207031 19.59375 -23.4375 L 19.59375 0 L 4.53125 0 L 4.53125 -39.9375 L 16.859375 -39.9375 L 17.84375 -33.875 C 19.40625 -36 21.457031 -37.691406 24 -38.953125 C 26.550781 -40.210938 29.238281 -40.84375 32.0625 -40.84375 Z M 32.0625 -40.84375 "/></g></g></g><g fill="#db4a2b" fill-opacity="1"><g transform="translate(107.326173, 176.563215)"><g><path d="M 24.28125 -40.84375 C 30.375 -40.84375 35.335938 -39.820312 39.171875 -37.78125 C 43.003906 -35.738281 44.921875 -32.421875 44.921875 -27.828125 L 44.921875 -12.25 C 44.921875 -11.394531 45.117188 -10.6875 45.515625 -10.125 C 45.921875 -9.570312 46.53125 -9.296875 47.34375 -9.296875 L 50.0625 -9.296875 L 50.0625 -0.609375 C 49.914062 -0.503906 49.523438 -0.335938 48.890625 -0.109375 C 48.265625 0.117188 47.367188 0.34375 46.203125 0.5625 C 45.046875 0.789062 43.710938 0.90625 42.203125 0.90625 C 39.273438 0.90625 36.863281 0.46875 34.96875 -0.40625 C 33.082031 -1.289062 31.785156 -2.515625 31.078125 -4.078125 C 29.160156 -2.566406 27.015625 -1.359375 24.640625 -0.453125 C 22.273438 0.453125 19.503906 0.90625 16.328125 0.90625 C 6.953125 0.90625 2.265625 -2.820312 2.265625 -10.28125 C 2.265625 -14.164062 3.3125 -17.128906 5.40625 -19.171875 C 7.5 -21.210938 10.507812 -22.609375 14.4375 -23.359375 C 18.375 -24.117188 23.519531 -24.5 29.875 -24.5 L 29.875 -26.46875 C 29.875 -28.03125 29.332031 -29.210938 28.25 -30.015625 C 27.164062 -30.828125 25.765625 -31.234375 24.046875 -31.234375 C 22.484375 -31.234375 21.132812 -30.953125 20 -30.390625 C 18.863281 -29.835938 18.296875 -28.957031 18.296875 -27.75 L 18.296875 -27.453125 L 3.484375 -27.453125 C 3.429688 -27.703125 3.40625 -28.054688 3.40625 -28.515625 C 3.40625 -32.296875 5.207031 -35.296875 8.8125 -37.515625 C 12.414062 -39.734375 17.570312 -40.84375 24.28125 -40.84375 Z M 29.875 -17.390625 C 25.582031 -17.390625 22.414062 -16.921875 20.375 -15.984375 C 18.332031 -15.054688 17.3125 -13.8125 17.3125 -12.25 C 17.3125 -9.726562 19.023438 -8.46875 22.453125 -8.46875 C 24.421875 -8.46875 26.148438 -8.992188 27.640625 -10.046875 C 29.128906 -11.109375 29.875 -12.421875 29.875 -13.984375 Z M 29.875 -17.390625 "/></g></g></g><g fill="#db4a2b" fill-opacity="1"><g transform="translate(153.454855, 176.563215)"><g><path d="M 28.8125 -40.90625 C 29.96875 -40.90625 31 -40.765625 31.90625 -40.484375 C 32.820312 -40.210938 33.28125 -40.050781 33.28125 -40 L 33.28125 -27.375 L 28.4375 -27.375 C 25.3125 -27.375 23.054688 -26.566406 21.671875 -24.953125 C 20.285156 -23.335938 19.59375 -20.941406 19.59375 -17.765625 L 19.59375 0 L 4.53125 0 L 4.53125 -39.9375 L 16.859375 -39.9375 L 17.84375 -33.875 C 18.75 -36.195312 20.1875 -37.945312 22.15625 -39.125 C 24.125 -40.3125 26.34375 -40.90625 28.8125 -40.90625 Z M 28.8125 -40.90625 "/></g></g></g><g fill="#db4a2b" fill-opacity="1"><g transform="translate(182.720028, 176.563215)"><g><path d="M 28.8125 -40.90625 C 29.96875 -40.90625 31 -40.765625 31.90625 -40.484375 C 32.820312 -40.210938 33.28125 -40.050781 33.28125 -40 L 33.28125 -27.375 L 28.4375 -27.375 C 25.3125 -27.375 23.054688 -26.566406 21.671875 -24.953125 C 20.285156 -23.335938 19.59375 -20.941406 19.59375 -17.765625 L 19.59375 0 L 4.53125 0 L 4.53125 -39.9375 L 16.859375 -39.9375 L 17.84375 -33.875 C 18.75 -36.195312 20.1875 -37.945312 22.15625 -39.125 C 24.125 -40.3125 26.34375 -40.90625 28.8125 -40.90625 Z M 28.8125 -40.90625 "/></g></g></g><g fill="#db4a2b" fill-opacity="1"><g transform="translate(211.985201, 176.563215)"><g><path d="M 25.1875 -40.84375 C 32.1875 -40.84375 37.691406 -39.0625 41.703125 -35.5 C 45.710938 -31.945312 47.71875 -26.769531 47.71875 -19.96875 C 47.71875 -13.15625 45.710938 -7.972656 41.703125 -4.421875 C 37.691406 -0.867188 32.1875 0.90625 25.1875 0.90625 C 18.175781 0.90625 12.675781 -0.859375 8.6875 -4.390625 C 4.707031 -7.921875 2.71875 -13.113281 2.71875 -19.96875 C 2.71875 -26.820312 4.707031 -32.015625 8.6875 -35.546875 C 12.675781 -39.078125 18.175781 -40.84375 25.1875 -40.84375 Z M 25.1875 -30.625 C 20.238281 -30.625 17.765625 -27.773438 17.765625 -22.078125 L 17.765625 -17.765625 C 17.765625 -12.117188 20.238281 -9.296875 25.1875 -9.296875 C 30.175781 -9.296875 32.671875 -12.117188 32.671875 -17.765625 L 32.671875 -22.078125 C 32.671875 -27.773438 30.175781 -30.625 25.1875 -30.625 Z M 25.1875 -30.625 "/></g></g></g><g fill="#db4a2b" fill-opacity="1"><g transform="translate(258.113883, 176.563215)"><g><path d="M 42.046875 0 L 35.84375 -22.234375 L 35.546875 -22.234375 L 29.265625 0 L 14.59375 0 L 0 -39.9375 L 16.1875 -39.9375 L 22.234375 -16.328125 L 22.765625 -16.328125 L 29.046875 -39.9375 L 44.015625 -39.9375 L 50.0625 -16.328125 L 50.59375 -16.328125 L 56.71875 -39.9375 L 71.390625 -39.9375 L 56.71875 0 Z M 42.046875 0 "/></g></g></g><g fill="#db4a2b" fill-opacity="1"><g transform="translate(325.189623, 176.563215)"><g><path d="M 4.609375 0 L 4.609375 -15.046875 L 20.640625 -15.046875 L 20.640625 0 Z M 4.609375 0 "/></g></g></g><g fill="#db4a2b" fill-opacity="1"><g transform="translate(140.325715, 204.934214)"><g><path d="M 10.453125 -14.625 C 11.429688 -14.507812 12.300781 -14.21875 13.0625 -13.75 C 13.832031 -13.28125 14.441406 -12.609375 14.890625 -11.734375 C 15.335938 -10.859375 15.5625 -9.769531 15.5625 -8.46875 C 15.5625 -7.039062 15.28125 -5.71875 14.71875 -4.5 C 14.164062 -3.289062 13.316406 -2.289062 12.171875 -1.5 C 11.035156 -0.707031 9.609375 -0.226562 7.890625 -0.0625 C 7.503906 -0.03125 7.191406 -0.0078125 6.953125 0 C 6.710938 0 6.394531 0 6 0 L 0.453125 0 L 3.046875 -14.71875 L 8.40625 -14.71875 C 8.789062 -14.71875 9.140625 -14.710938 9.453125 -14.703125 C 9.765625 -14.691406 10.097656 -14.664062 10.453125 -14.625 Z M 7.5 -3.03125 C 8.425781 -3.113281 9.1875 -3.40625 9.78125 -3.90625 C 10.375 -4.414062 10.8125 -5.054688 11.09375 -5.828125 C 11.375 -6.609375 11.515625 -7.453125 11.515625 -8.359375 C 11.515625 -9.472656 11.296875 -10.285156 10.859375 -10.796875 C 10.429688 -11.316406 9.816406 -11.613281 9.015625 -11.6875 C 8.773438 -11.71875 8.554688 -11.734375 8.359375 -11.734375 C 8.160156 -11.734375 7.921875 -11.734375 7.640625 -11.734375 L 6.359375 -11.734375 L 4.8125 -2.984375 L 6.125 -2.984375 C 6.40625 -2.984375 6.644531 -2.984375 6.84375 -2.984375 C 7.039062 -2.992188 7.257812 -3.007812 7.5 -3.03125 Z M 7.5 -3.03125 "/></g></g></g><g fill="#db4a2b" fill-opacity="1"><g transform="translate(155.478506, 204.934214)"><g><path d="M 4.28125 0 L 0.453125 0 L 3.046875 -14.71875 L 6.890625 -14.71875 Z M 4.28125 0 "/></g></g></g><g fill="#db4a2b" fill-opacity="1"><g transform="translate(161.338871, 204.934214)"><g><path d="M 10.359375 -15.015625 C 11.773438 -15.015625 12.914062 -14.785156 13.78125 -14.328125 C 14.644531 -13.878906 15.269531 -13.265625 15.65625 -12.484375 C 16.039062 -11.710938 16.195312 -10.84375 16.125 -9.875 L 16.109375 -9.65625 L 12.265625 -9.65625 L 12.265625 -9.875 C 12.222656 -11.425781 11.410156 -12.203125 9.828125 -12.203125 C 9.078125 -12.203125 8.363281 -11.972656 7.6875 -11.515625 C 7.007812 -11.054688 6.457031 -10.375 6.03125 -9.46875 C 5.601562 -8.570312 5.390625 -7.441406 5.390625 -6.078125 C 5.390625 -5.210938 5.507812 -4.519531 5.75 -4 C 6 -3.476562 6.328125 -3.097656 6.734375 -2.859375 C 7.148438 -2.628906 7.609375 -2.515625 8.109375 -2.515625 C 8.859375 -2.515625 9.515625 -2.703125 10.078125 -3.078125 C 10.640625 -3.453125 11.117188 -4.046875 11.515625 -4.859375 L 8.65625 -4.859375 L 9.1875 -7.84375 L 15.671875 -7.84375 L 14.296875 0 L 11.296875 0 L 11.34375 -2.28125 L 10.40625 -0.640625 C 9.9375 -0.285156 9.425781 -0.0390625 8.875 0.09375 C 8.320312 0.226562 7.65625 0.296875 6.875 0.296875 C 5.1875 0.296875 3.835938 -0.207031 2.828125 -1.21875 C 1.828125 -2.226562 1.328125 -3.695312 1.328125 -5.625 C 1.328125 -7.164062 1.578125 -8.519531 2.078125 -9.6875 C 2.585938 -10.851562 3.269531 -11.832031 4.125 -12.625 C 4.988281 -13.425781 5.957031 -14.023438 7.03125 -14.421875 C 8.101562 -14.816406 9.210938 -15.015625 10.359375 -15.015625 Z M 10.359375 -15.015625 "/></g></g></g><g fill="#db4a2b" fill-opacity="1"><g transform="translate(177.258925, 204.934214)"><g><path d="M 4.28125 0 L 0.453125 0 L 3.046875 -14.71875 L 6.890625 -14.71875 Z M 4.28125 0 "/></g></g></g><g fill="#db4a2b" fill-opacity="1"><g transform="translate(183.119288, 204.934214)"><g><path d="M 14.734375 -11.734375 L 9.984375 -11.734375 L 7.90625 0 L 4.078125 0 L 6.140625 -11.734375 L 1.34375 -11.734375 L 1.890625 -14.71875 L 15.296875 -14.71875 Z M 14.734375 -11.734375 "/></g></g></g><g fill="#db4a2b" fill-opacity="1"><g transform="translate(195.92766, 204.934214)"><g><path d="M 9.65625 -3.8125 L 5.03125 -3.8125 L 3.15625 0 L -0.921875 0 L 6.84375 -14.71875 L 11.8125 -14.71875 L 14.390625 0 L 10.21875 0 Z M 9.234375 -6.796875 L 8.609375 -11.15625 L 6.484375 -6.796875 Z M 9.234375 -6.796875 "/></g></g></g><g fill="#db4a2b" fill-opacity="1"><g transform="translate(210.334508, 204.934214)"><g><path d="M 12.3125 -3.234375 L 11.734375 0 L 0.453125 0 L 3.046875 -14.71875 L 6.890625 -14.71875 L 4.859375 -3.234375 Z M 12.3125 -3.234375 "/></g></g></g><g fill="#db4a2b" fill-opacity="1"><g transform="translate(222.801871, 204.934214)"><g/></g></g><g fill="#db4a2b" fill-opacity="1"><g transform="translate(224.868553, 204.934214)"><g><path d="M 8.109375 -15.015625 C 9.398438 -15.015625 10.429688 -14.800781 11.203125 -14.375 C 11.984375 -13.945312 12.539062 -13.363281 12.875 -12.625 C 13.207031 -11.894531 13.34375 -11.078125 13.28125 -10.171875 L 9.453125 -10.171875 C 9.472656 -10.785156 9.347656 -11.273438 9.078125 -11.640625 C 8.816406 -12.015625 8.367188 -12.203125 7.734375 -12.203125 C 7.242188 -12.203125 6.832031 -12.066406 6.5 -11.796875 C 6.164062 -11.535156 6 -11.148438 6 -10.640625 C 6 -10.242188 6.195312 -9.898438 6.59375 -9.609375 C 7 -9.316406 7.722656 -9.039062 8.765625 -8.78125 C 10.117188 -8.457031 11.097656 -7.953125 11.703125 -7.265625 C 12.304688 -6.585938 12.609375 -5.785156 12.609375 -4.859375 C 12.609375 -4.003906 12.425781 -3.253906 12.0625 -2.609375 C 11.695312 -1.960938 11.195312 -1.421875 10.5625 -0.984375 C 9.9375 -0.554688 9.222656 -0.234375 8.421875 -0.015625 C 7.628906 0.191406 6.804688 0.296875 5.953125 0.296875 C 4.773438 0.296875 3.738281 0.128906 2.84375 -0.203125 C 1.957031 -0.546875 1.285156 -1.070312 0.828125 -1.78125 C 0.378906 -2.5 0.207031 -3.40625 0.3125 -4.5 L 4.15625 -4.5 C 4.15625 -3.800781 4.378906 -3.296875 4.828125 -2.984375 C 5.273438 -2.671875 5.785156 -2.515625 6.359375 -2.515625 C 6.941406 -2.515625 7.441406 -2.660156 7.859375 -2.953125 C 8.273438 -3.242188 8.484375 -3.625 8.484375 -4.09375 C 8.484375 -4.414062 8.316406 -4.734375 7.984375 -5.046875 C 7.660156 -5.367188 7.117188 -5.628906 6.359375 -5.828125 C 4.929688 -6.191406 3.828125 -6.664062 3.046875 -7.25 C 2.265625 -7.84375 1.875 -8.695312 1.875 -9.8125 C 1.875 -10.644531 2.046875 -11.382812 2.390625 -12.03125 C 2.734375 -12.6875 3.195312 -13.234375 3.78125 -13.671875 C 4.375 -14.109375 5.039062 -14.441406 5.78125 -14.671875 C 6.519531 -14.898438 7.296875 -15.015625 8.109375 -15.015625 Z M 8.109375 -15.015625 "/></g></g></g><g fill="#db4a2b" fill-opacity="1"><g transform="translate(237.570364, 204.934214)"><g><path d="M 9.953125 -15.015625 C 11.460938 -15.015625 12.738281 -14.734375 13.78125 -14.171875 C 14.832031 -13.617188 15.628906 -12.863281 16.171875 -11.90625 C 16.722656 -10.945312 17 -9.859375 17 -8.640625 C 17 -7.253906 16.773438 -6.003906 16.328125 -4.890625 C 15.890625 -3.785156 15.28125 -2.847656 14.5 -2.078125 C 13.71875 -1.316406 12.804688 -0.726562 11.765625 -0.3125 C 10.734375 0.09375 9.617188 0.296875 8.421875 0.296875 C 6.929688 0.296875 5.660156 0.0195312 4.609375 -0.53125 C 3.554688 -1.082031 2.753906 -1.84375 2.203125 -2.8125 C 1.660156 -3.78125 1.390625 -4.867188 1.390625 -6.078125 C 1.390625 -7.472656 1.609375 -8.71875 2.046875 -9.8125 C 2.484375 -10.914062 3.09375 -11.851562 3.875 -12.625 C 4.664062 -13.394531 5.578125 -13.984375 6.609375 -14.390625 C 7.648438 -14.804688 8.765625 -15.015625 9.953125 -15.015625 Z M 8.546875 -2.515625 C 9.285156 -2.515625 9.929688 -2.695312 10.484375 -3.0625 C 11.046875 -3.425781 11.503906 -3.898438 11.859375 -4.484375 C 12.222656 -5.078125 12.492188 -5.726562 12.671875 -6.4375 C 12.859375 -7.144531 12.953125 -7.84375 12.953125 -8.53125 C 12.953125 -9.613281 12.6875 -10.492188 12.15625 -11.171875 C 11.632812 -11.859375 10.859375 -12.203125 9.828125 -12.203125 C 9.085938 -12.203125 8.441406 -12.019531 7.890625 -11.65625 C 7.335938 -11.289062 6.878906 -10.8125 6.515625 -10.21875 C 6.148438 -9.632812 5.878906 -8.984375 5.703125 -8.265625 C 5.523438 -7.554688 5.4375 -6.863281 5.4375 -6.1875 C 5.4375 -5.101562 5.695312 -4.21875 6.21875 -3.53125 C 6.75 -2.851562 7.523438 -2.515625 8.546875 -2.515625 Z M 8.546875 -2.515625 "/></g></g></g><g fill="#db4a2b" fill-opacity="1"><g transform="translate(254.129802, 204.934214)"><g><path d="M 12.3125 -3.234375 L 11.734375 0 L 0.453125 0 L 3.046875 -14.71875 L 6.890625 -14.71875 L 4.859375 -3.234375 Z M 12.3125 -3.234375 "/></g></g></g><g fill="#db4a2b" fill-opacity="1"><g transform="translate(266.597165, 204.934214)"><g><path d="M 16.109375 -14.71875 L 14.734375 -6.890625 C 14.648438 -6.398438 14.578125 -6.003906 14.515625 -5.703125 C 14.460938 -5.410156 14.378906 -5.046875 14.265625 -4.609375 C 14.035156 -3.648438 13.660156 -2.800781 13.140625 -2.0625 C 12.628906 -1.320312 11.90625 -0.742188 10.96875 -0.328125 C 10.039062 0.0859375 8.820312 0.296875 7.3125 0.296875 C 5.945312 0.296875 4.820312 0.101562 3.9375 -0.28125 C 3.0625 -0.664062 2.410156 -1.179688 1.984375 -1.828125 C 1.554688 -2.472656 1.34375 -3.203125 1.34375 -4.015625 C 1.34375 -4.410156 1.367188 -4.820312 1.421875 -5.25 C 1.472656 -5.675781 1.566406 -6.296875 1.703125 -7.109375 L 3.046875 -14.71875 L 6.890625 -14.71875 L 5.3125 -5.765625 C 5.269531 -5.535156 5.238281 -5.316406 5.21875 -5.109375 C 5.195312 -4.910156 5.1875 -4.710938 5.1875 -4.515625 C 5.1875 -3.867188 5.421875 -3.375 5.890625 -3.03125 C 6.367188 -2.6875 6.9375 -2.515625 7.59375 -2.515625 C 8.34375 -2.515625 8.957031 -2.679688 9.4375 -3.015625 C 9.925781 -3.347656 10.285156 -3.972656 10.515625 -4.890625 C 10.546875 -5.015625 10.570312 -5.140625 10.59375 -5.265625 C 10.625 -5.390625 10.65625 -5.554688 10.6875 -5.765625 L 12.265625 -14.71875 Z M 16.109375 -14.71875 "/></g></g></g><g fill="#db4a2b" fill-opacity="1"><g transform="translate(281.259761, 204.934214)"><g><path d="M 14.734375 -11.734375 L 9.984375 -11.734375 L 7.90625 0 L 4.078125 0 L 6.140625 -11.734375 L 1.34375 -11.734375 L 1.890625 -14.71875 L 15.296875 -14.71875 Z M 14.734375 -11.734375 "/></g></g></g><g fill="#db4a2b" fill-opacity="1"><g transform="translate(294.068136, 204.934214)"><g><path d="M 4.28125 0 L 0.453125 0 L 3.046875 -14.71875 L 6.890625 -14.71875 Z M 4.28125 0 "/></g></g></g><g fill="#db4a2b" fill-opacity="1"><g transform="translate(299.928501, 204.934214)"><g><path d="M 9.953125 -15.015625 C 11.460938 -15.015625 12.738281 -14.734375 13.78125 -14.171875 C 14.832031 -13.617188 15.628906 -12.863281 16.171875 -11.90625 C 16.722656 -10.945312 17 -9.859375 17 -8.640625 C 17 -7.253906 16.773438 -6.003906 16.328125 -4.890625 C 15.890625 -3.785156 15.28125 -2.847656 14.5 -2.078125 C 13.71875 -1.316406 12.804688 -0.726562 11.765625 -0.3125 C 10.734375 0.09375 9.617188 0.296875 8.421875 0.296875 C 6.929688 0.296875 5.660156 0.0195312 4.609375 -0.53125 C 3.554688 -1.082031 2.753906 -1.84375 2.203125 -2.8125 C 1.660156 -3.78125 1.390625 -4.867188 1.390625 -6.078125 C 1.390625 -7.472656 1.609375 -8.71875 2.046875 -9.8125 C 2.484375 -10.914062 3.09375 -11.851562 3.875 -12.625 C 4.664062 -13.394531 5.578125 -13.984375 6.609375 -14.390625 C 7.648438 -14.804688 8.765625 -15.015625 9.953125 -15.015625 Z M 8.546875 -2.515625 C 9.285156 -2.515625 9.929688 -2.695312 10.484375 -3.0625 C 11.046875 -3.425781 11.503906 -3.898438 11.859375 -4.484375 C 12.222656 -5.078125 12.492188 -5.726562 12.671875 -6.4375 C 12.859375 -7.144531 12.953125 -7.84375 12.953125 -8.53125 C 12.953125 -9.613281 12.6875 -10.492188 12.15625 -11.171875 C 11.632812 -11.859375 10.859375 -12.203125 9.828125 -12.203125 C 9.085938 -12.203125 8.441406 -12.019531 7.890625 -11.65625 C 7.335938 -11.289062 6.878906 -10.8125 6.515625 -10.21875 C 6.148438 -9.632812 5.878906 -8.984375 5.703125 -8.265625 C 5.523438 -7.554688 5.4375 -6.863281 5.4375 -6.1875 C 5.4375 -5.101562 5.695312 -4.21875 6.21875 -3.53125 C 6.75 -2.851562 7.523438 -2.515625 8.546875 -2.515625 Z M 8.546875 -2.515625 "/></g></g></g><g fill="#db4a2b" fill-opacity="1"><g transform="translate(316.487939, 204.934214)"><g><path d="M 17.125 -14.71875 L 14.53125 0 L 9.515625 0 L 6 -9.75 L 4.28125 0 L 0.453125 0 L 3.046875 -14.71875 L 7.828125 -14.71875 L 11.515625 -4.546875 L 13.28125 -14.71875 Z M 17.125 -14.71875 "/></g></g></g><g fill="#db4a2b" fill-opacity="1"><g transform="translate(332.578491, 204.934214)"><g><path d="M 8.109375 -15.015625 C 9.398438 -15.015625 10.429688 -14.800781 11.203125 -14.375 C 11.984375 -13.945312 12.539062 -13.363281 12.875 -12.625 C 13.207031 -11.894531 13.34375 -11.078125 13.28125 -10.171875 L 9.453125 -10.171875 C 9.472656 -10.785156 9.347656 -11.273438 9.078125 -11.640625 C 8.816406 -12.015625 8.367188 -12.203125 7.734375 -12.203125 C 7.242188 -12.203125 6.832031 -12.066406 6.5 -11.796875 C 6.164062 -11.535156 6 -11.148438 6 -10.640625 C 6 -10.242188 6.195312 -9.898438 6.59375 -9.609375 C 7 -9.316406 7.722656 -9.039062 8.765625 -8.78125 C 10.117188 -8.457031 11.097656 -7.953125 11.703125 -7.265625 C 12.304688 -6.585938 12.609375 -5.785156 12.609375 -4.859375 C 12.609375 -4.003906 12.425781 -3.253906 12.0625 -2.609375 C 11.695312 -1.960938 11.195312 -1.421875 10.5625 -0.984375 C 9.9375 -0.554688 9.222656 -0.234375 8.421875 -0.015625 C 7.628906 0.191406 6.804688 0.296875 5.953125 0.296875 C 4.773438 0.296875 3.738281 0.128906 2.84375 -0.203125 C 1.957031 -0.546875 1.285156 -1.070312 0.828125 -1.78125 C 0.378906 -2.5 0.207031 -3.40625 0.3125 -4.5 L 4.15625 -4.5 C 4.15625 -3.800781 4.378906 -3.296875 4.828125 -2.984375 C 5.273438 -2.671875 5.785156 -2.515625 6.359375 -2.515625 C 6.941406 -2.515625 7.441406 -2.660156 7.859375 -2.953125 C 8.273438 -3.242188 8.484375 -3.625 8.484375 -4.09375 C 8.484375 -4.414062 8.316406 -4.734375 7.984375 -5.046875 C 7.660156 -5.367188 7.117188 -5.628906 6.359375 -5.828125 C 4.929688 -6.191406 3.828125 -6.664062 3.046875 -7.25 C 2.265625 -7.84375 1.875 -8.695312 1.875 -9.8125 C 1.875 -10.644531 2.046875 -11.382812 2.390625 -12.03125 C 2.734375 -12.6875 3.195312 -13.234375 3.78125 -13.671875 C 4.375 -14.109375 5.039062 -14.441406 5.78125 -14.671875 C 6.519531 -14.898438 7.296875 -15.015625 8.109375 -15.015625 Z M 8.109375 -15.015625 "/></g></g></g></svg>